<svg xmlns="http://www.w3.org/2000/svg" viewBox="0 0 935 310" fill="currentColor" fill-rule="evenodd"><path d="M198.2 305.3L189.0 304.9L189.0 286.5L189.0 268.0L214.8 268.0L240.5 268.0L243.1 263.7C244.6 261.4 248.7 253.6 252.3 246.3L258.7 233.1L256.1 228.3C254.7 225.7 250.8 217.9 247.6 211.0C244.3 204.1 238.1 191.1 233.8 182.1C229.5 173.1 226.0 165.6 226.0 165.4C226.0 165.1 221.5 155.8 216.1 144.7C197.3 106.2 184.8 80.5 183.9 78.2L183.0 76.0L205.5 76.0C218.2 76.0 228.0 76.4 228.0 76.9C228.0 77.4 234.3 91.7 242.1 108.6C259.0 145.6 274.5 180.5 277.9 189.4C278.4 190.8 279.9 188.3 283.8 178.9C288.9 166.4 291.6 160.3 300.7 139.0C303.5 132.7 308.5 120.8 312.0 112.5C315.4 104.2 320.3 92.7 322.8 86.8L327.3 76.0L349.1 76.0C361.2 76.0 371.0 76.2 371.0 76.4C371.0 76.8 369.6 79.9 362.4 95.5C361.7 97.2 358.4 104.6 355.2 112.0C343.1 139.7 323.7 183.7 321.3 189.0C319.9 192.0 317.4 197.7 315.8 201.5C314.1 205.3 308.7 217.5 303.8 228.5C298.9 239.5 294.2 250.1 293.3 252.0C291.2 257.0 290.5 258.7 287.1 266.3C285.4 270.0 281.0 279.9 277.4 288.3C273.7 296.6 270.3 304.1 269.7 304.8C269.0 305.7 261.6 306.0 238.1 305.8C221.3 305.7 203.3 305.4 198.2 305.3ZM68.3 238.5C33.1 230.8 8.6 201.9 5.0 163.7C4.4 157.3 4.0 136.1 4.2 114.5L4.5 76.5L24.2 76.2L43.9 76.0L44.2 121.7C44.5 165.4 44.7 167.8 46.7 173.1C51.0 184.5 58.6 193.1 68.8 197.8C73.9 200.2 75.7 200.5 85.5 200.5C95.4 200.5 97.1 200.2 102.3 197.8C114.0 192.3 123.8 178.8 126.0 165.0C126.5 161.4 127.0 140.3 127.0 117.2L127.0 76.0L147.0 76.0L167.0 76.0L167.0 117.9C167.0 141.4 166.5 163.3 166.0 167.7C161.2 203.6 134.9 231.9 100.2 238.6C91.1 240.3 76.5 240.3 68.3 238.5ZM434.5 237.6C409.7 232.0 386.3 210.7 376.6 185.2C372.2 173.8 371.0 167.1 371.0 154.8C371.0 141.3 373.1 132.5 379.6 119.5C394.8 88.6 424.3 71.1 457.3 73.4C471.0 74.3 484.1 79.6 493.1 87.7L497.0 91.2L497.0 83.6L497.0 76.0L517.0 76.0L537.0 76.0L537.0 156.5L537.0 237.0L517.5 237.0L498.0 237.0L498.0 229.1C498.0 220.4 497.0 218.6 494.5 222.4C492.0 226.2 483.2 231.6 473.8 235.1C466.5 237.9 464.1 238.3 453.0 238.6C444.7 238.8 438.5 238.5 434.5 237.6ZM832.0 238.4C821.6 236.4 808.2 230.5 799.7 224.1C793.1 219.2 783.2 208.9 779.1 202.7C753.4 164.4 763.2 112.6 801.2 86.9C820.8 73.6 847.7 69.6 868.7 77.0C876.0 79.5 884.3 84.5 888.6 89.0L892.0 92.4L892.0 83.7L892.0 75.0L897.2 75.0C900.1 75.0 908.9 75.3 916.8 75.7L931.0 76.3L931.0 156.7L931.0 237.0L912.0 237.0L893.0 237.0L893.0 228.0C893.0 223.1 892.6 219.0 892.2 219.0C891.7 219.0 890.4 220.4 889.1 222.1C885.7 226.6 876.3 232.3 866.9 235.5C859.9 237.8 856.5 238.3 846.5 238.6C839.9 238.7 833.4 238.6 832.0 238.4ZM566.0 156.6L566.0 76.3L585.2 75.8C595.8 75.5 604.8 75.4 605.2 75.7C605.7 75.9 606.0 80.4 606.0 85.6L606.0 95.1L611.2 91.1C626.5 79.7 637.8 76.1 660.8 75.3L677.0 74.7L677.0 93.7L677.0 112.7L665.2 113.4C644.4 114.5 631.6 119.6 620.0 131.0C616.4 134.7 612.3 139.9 610.8 143.0C605.3 154.2 605.0 157.1 605.0 198.7L605.0 237.0L585.5 237.0L566.0 237.0L566.0 156.6ZM700.0 120.5L700.0 4.0L720.5 4.0L741.0 4.0L741.0 101.2C741.0 154.7 740.7 207.2 740.3 217.8L739.7 237.0L719.9 237.0L700.0 237.0L700.0 120.5ZM466.3 199.5C474.3 197.4 478.8 194.9 485.2 189.1C491.9 183.0 496.6 174.4 498.6 164.8C502.7 145.2 492.3 125.7 472.7 116.4C450.6 106.0 426.6 114.9 415.3 137.7C411.6 145.2 411.5 145.7 411.5 156.5C411.5 167.2 411.6 167.7 415.3 175.5C424.5 194.7 445.9 204.8 466.3 199.5ZM860.3 199.4C867.9 197.4 871.3 195.7 877.2 190.8C897.5 173.9 898.4 141.2 879.2 123.9C855.5 102.6 817.4 112.4 807.0 142.4C802.9 154.5 805.3 171.9 812.5 181.8C823.7 197.0 842.6 204.0 860.3 199.4Z"/></svg>
